<svg xmlns="http://www.w3.org/2000/svg" fill="none" viewBox="0 0 190 50"><path fill="#fff" fill-rule="evenodd" d="m17.4 18 .3-1.9C9 15.3 5.4 19 3.1 22.1a15 15 0 0 0-3 10.8c.8 6 5.3 10.7 11 12.4 8.2 2.5 17.8-2 20.2-10.3l-2-.5c-.1.6-.4 1.3-.8 2-.5-.7-.8-1.5-1.2-2.4-.3-.9-.6-1.8-1.2-2.5-1.7-2.1-4.6-.7-6.1.8-.8.6-1.3 1.1-2.2 1.4-1.6.5-3-.7-4.6-.4-2.7.4-3.3 4-3.3 6.2l.3 3.3a13.7 13.7 0 0 1-7.7-8.3c1 .3 2 .4 2.9-.1 1.7-1 1.9-3 3.2-4.3 1.4-1.4 4.1.4 5.6-1.6a5 5 0 0 0 1-3.2v-1.1c.2-.2.3-.4.7-.6.9-.5 1.3-1.3 1.3-2.2 0-.8-.3-1.5-.7-2.2l-1-1.4 1.9.1Zm-5 25.6c5.6 1.5 11.7-.6 15-5.3a6 6 0 0 1-1-1.5c-.6-1-1.2-4.5-2.6-4.4-2.1.2-3.4 2.6-5.4 3.3-1.8.5-3.2-.7-4.9-.4-1.5.2-1.6 3.2-1.6 4.3 0 1.4.3 2.7.4 4ZM2 32.2c.6.3 1.8 1 2.4.6 1.4-.8 1.7-2.8 2.8-4 .9-.8 2-.9 3.3-.8.7 0 1.6 0 2.1-.6.5-.7.6-1.2.6-2 0-.7 0-1.3.3-1.9.2-.6.7-1 1.4-1.5.2-.1.3-.3.3-.5 0-.3-.1-.7-.4-1.2a7.6 7.6 0 0 0-2-2.1c-3.2.4-6.1 2.4-8 5-2 2.6-3 6-2.8 9Z" clip-rule="evenodd"/><path fill="#fff" fill-rule="evenodd" d="M27 3h1c1.3 0 2.5.3 3.4.9 1 .7 1.8 1.6 2.1 3 1.3 4.7-.1 8.9-2 12.9v13l-4.4-1.4V3Zm2 2v25l.6.2v-11c1.9-4 3.1-7.8 2-11.9a3 3 0 0 0-1.2-1.8L29 5Zm-8.7 7.7V3.4h2v9.3c.6-.1 1-.4 1.3-.6.4-.4.6-1 .6-2 .1-.9 0-2-.1-3v-.4l-.3-3h2c0 .7 0 1.7.2 2.7a480.7 480.7 0 0 1 .2 3.9c0 1-.3 2.2-1.2 3.1-.6.7-1.6 1.1-2.7 1.2v15h-2v-15a4.5 4.5 0 0 1-2.8-1.2c-.8-1-1.1-2-1.2-3.1a19.3 19.3 0 0 1 .3-3.8l.2-2.9h2c0 1-.1 2.1-.3 3.1v.4c-.1 1.1-.3 2.1-.2 3 0 1 .3 1.5.7 2 .2.2.6.4 1.3.6Z" clip-rule="evenodd"/><path fill="#fff" d="M51 29c-1.6 0-3-.3-4.2-.9a6.6 6.6 0 0 1-2.8-2.3c-.7-1-1-2.2-1-3.6a8.6 8.6 0 0 1 2.8-6.6c.9-.8 1.9-1.5 3.1-2a11.6 11.6 0 0 1 8 .1c1.1.5 2 1.3 2.5 2.2l-3.2 2.5c-.4-.6-.9-1-1.4-1.3-.6-.3-1.3-.5-2.1-.5s-1.5.1-2.1.4a4.7 4.7 0 0 0-2.7 2.8 6 6 0 0 0-.4 2.1c0 .7.2 1.3.5 1.9.3.5.8.9 1.3 1.2.6.3 1.3.4 2.1.4a5.2 5.2 0 0 0 4-1.8l2.6 2.5c-1 1-2 1.8-3.1 2.3-1.2.4-2.5.6-3.9.6ZM68.4 29c-1.7 0-3-.3-4.3-.9-1.2-.5-2-1.3-2.7-2.4-.6-1-1-2.1-1-3.5a9.2 9.2 0 0 1 2.8-6.6c.9-.8 2-1.5 3.2-2a11.5 11.5 0 0 1 8.2.3c1.2.6 2.1 1.3 2.7 2.4.7 1 1 2.1 1 3.5 0 1.3-.3 2.6-.7 3.7a8.9 8.9 0 0 1-5.2 4.8c-1.3.5-2.6.7-4 .7Zm.3-3.6a5 5 0 0 0 2.1-.4c.7-.3 1.2-.7 1.6-1.2.4-.5.8-1 1-1.7.2-.7.3-1.3.3-2 0-.8-.1-1.4-.4-1.9-.3-.5-.7-.9-1.3-1.2-.5-.2-1.2-.4-2-.4a5 5 0 0 0-2.1.4c-.6.3-1.2.7-1.6 1.2l-1 1.7c-.2.7-.3 1.3-.3 2s.1 1.3.4 1.9c.3.5.7.9 1.3 1.2.6.3 1.2.4 2 .4ZM88.7 29c-1.6 0-3-.3-4.2-.9-1.2-.5-2.1-1.3-2.8-2.4-.6-1-1-2.1-1-3.5a9.1 9.1 0 0 1 2.9-6.6c.8-.8 1.9-1.5 3-2a11.5 11.5 0 0 1 8.3.3c1.2.6 2.1 1.3 2.8 2.4.6 1 1 2.1 1 3.5 0 1.3-.3 2.6-.8 3.7a8.9 8.9 0 0 1-5.2 4.8c-1.2.5-2.6.7-4 .7Zm.4-3.6a5 5 0 0 0 2-.4c.7-.3 1.2-.7 1.6-1.2.5-.5.8-1 1-1.7.3-.7.4-1.3.4-2 0-.8-.2-1.4-.5-1.9s-.7-.9-1.2-1.2c-.6-.2-1.3-.4-2-.4a5 5 0 0 0-2.2.4c-.6.3-1.1.7-1.6 1.2l-1 1.7c-.2.7-.3 1.3-.3 2s.2 1.3.5 1.9c.3.5.7.9 1.2 1.2.6.3 1.3.4 2 .4ZM105.7 24.3 107 19l7.3-6h5.4l-8.5 7-3 2.5-2.4 1.8Zm-5.3 4 3.2-15.3h4.6l-3.3 15.2h-4.5Zm11.2 0-3.5-5.8 3-2.4 5.6 8.1h-5.1ZM123.8 28.4l2.4-12h-4.8l.7-3.4h14.2l-.7 3.5h-4.9l-2.4 11.9h-4.5ZM144.2 29c-1.6 0-3-.3-4.2-.9-1.2-.5-2.1-1.3-2.8-2.4-.6-1-1-2.1-1-3.5a9.1 9.1 0 0 1 2.9-6.6c.8-.8 1.9-1.5 3.1-2a11.5 11.5 0 0 1 8.3.3c1.1.6 2 1.3 2.7 2.4.6 1 1 2.1 1 3.5 0 1.3-.3 2.6-.8 3.7a8.9 8.9 0 0 1-5.2 4.8c-1.2.5-2.5.7-4 .7Zm.4-3.6a5 5 0 0 0 2-.4c.7-.3 1.2-.7 1.6-1.2.5-.5.8-1 1-1.7.3-.7.4-1.3.4-2 0-.8-.2-1.4-.5-1.9s-.7-.9-1.2-1.2c-.6-.2-1.3-.4-2-.4a5 5 0 0 0-2.2.4 5.4 5.4 0 0 0-2.6 2.9c-.2.7-.3 1.3-.3 2s.2 1.3.5 1.9c.3.5.7.9 1.2 1.2.6.3 1.3.4 2 .4ZM163.3 28.7c-1.6 0-3-.3-4-.9a5 5 0 0 1-2.3-2.5c-.4-1-.5-2.3-.2-3.8l1.8-8.5h4.5l-1.8 8.5c-.1.6-.1 1.1 0 1.6 0 .4 0 .8.3 1.1.2.3.5.5.9.7l1.3.2c.6 0 1.2-.1 1.6-.4a3 3 0 0 0 1.2-1.1c.3-.6.6-1.3.7-2.1l1.8-8.5h4.4l-1.8 8.7c-.5 2.3-1.4 4-2.8 5.2a8.5 8.5 0 0 1-5.6 1.8ZM190 17.8c0 1.4-.4 2.6-1.2 3.7-.8 1-1.9 1.7-3.3 2.2l2.8 4.5h-4.8l-2.4-4h-2.3l-.8 4h-4.6l3.2-15.2h7c2 0 3.6.4 4.7 1.3 1.1.8 1.7 2 1.7 3.5Zm-4.6.5c0-.7-.2-1.1-.7-1.4-.4-.3-1-.5-1.8-.5h-2.4l-1 4.4h2.7c1 0 1.8-.2 2.4-.6.5-.5.8-1.1.8-2ZM43.3 42.2 43 42l-.1-.2v-6.5h4.6l.1.2V35.9h-4v6.2h-.4ZM51 42.3l-1-.2a2 2 0 0 1-.8-.6c-.2-.2-.3-.4-.3-.7 0-.4.2-.8.6-1 .4-.3 1-.5 1.6-.6L53 39v-.3a1 1 0 0 0-.4-.8c-.3-.2-.7-.3-1.2-.3a2 2 0 0 0-1 .2 1 1 0 0 0-.5.5l-.2.1h-.4v-.5l.5-.4c.1-.2.4-.3.6-.4a3 3 0 0 1 1 0h1.1l.7.5c.2.1.3.3.3.5l.2.6V42l-.1.2H53V41.5l-.4.3c-.2.2-.4.3-.7.3l-1 .2Zm0-.6c.4 0 .7 0 1-.2.3-.1.5-.3.7-.6.2-.3.3-.6.3-1v-.3l-1.5.1a4 4 0 0 0-1.4.4c-.4.2-.5.4-.5.7 0 .2 0 .3.2.5l.5.3h.7ZM58.4 42.3c-.5 0-1-.1-1.4-.3a2 2 0 0 1-.8-.8c-.2-.3-.3-.7-.3-1.2a5.2 5.2 0 0 1 0-.8c0-.4 0-.8.3-1.2l.8-.7c.4-.2.9-.3 1.4-.3.4 0 .8 0 1 .2.3 0 .6.2.8.3l.4.5.2.6v.1H60.1l-.1-.1c-.2-.4-.4-.7-.7-.8-.2-.2-.6-.2-1-.2a2 2 0 0 0-1.3.4c-.3.2-.5.7-.5 1.3v.7c0 .6.2 1 .5 1.3.4.3.8.4 1.3.4.4 0 .8 0 1-.2.3-.2.5-.4.7-.8l.1-.2h.5V41.2c0 .2-.2.3-.3.5l-.5.3-.6.3h-.9ZM64.8 42.2l-.2-.1v-4.4H62.2l-.1-.2V37.2l.3-.1h5l.1.2V37.6h-2.3V42l-.1.2h-.4ZM69.6 44h-.2v-6.8l.2-.1h.4v.7l.8-.6L72 37c.4 0 .8 0 1.1.2a2 2 0 0 1 1.2 1.3l.1.8a4 4 0 0 1-.1 1.5c0 .3-.2.5-.4.7l-.8.6a3 3 0 0 1-1.1.2c-.5 0-.9-.1-1.2-.3l-.7-.5v2.3l-.1.1-.2.1h-.2Zm2.3-2.3c.5 0 .8-.1 1-.3.4-.1.5-.4.7-.6l.1-.9v-.5l-.1-1-.6-.6a2 2 0 0 0-1-.2c-.5 0-.9 0-1.1.2-.3.2-.5.4-.6.7l-.2.8a5 5 0 0 0 0 .7c0 .3 0 .6.2.8.1.3.3.5.6.6.3.2.6.3 1 .3ZM79 42.3a3 3 0 0 1-1.4-.3c-.4-.2-.7-.5-.9-.8-.2-.4-.3-.7-.3-1.2a5.6 5.6 0 0 1 0-.8 2.1 2.1 0 0 1 1.2-2 3 3 0 0 1 1.4-.2c.5 0 1 .1 1.3.3.4.2.7.5.9.8.2.3.3.7.3 1.1a5.6 5.6 0 0 1 0 .8c0 .5-.1.8-.3 1.2a2 2 0 0 1-.9.8 3 3 0 0 1-1.3.3Zm0-.6c.5 0 1-.2 1.3-.4.3-.3.5-.8.5-1.3a4.7 4.7 0 0 0 0-.7c0-.6-.2-1-.5-1.3a2 2 0 0 0-1.3-.4 2 2 0 0 0-1.3.4c-.4.3-.5.7-.6 1.3a4.7 4.7 0 0 0 0 .7c0 .5.2 1 .6 1.3.3.2.7.4 1.3.4ZM85.6 42.2l-.2-.1v-4.4H83l-.1-.2V37.2l.3-.1h5l.1.2V37.6H86V42l-.1.2h-.4ZM90.3 44h-.2v-.5h.5l.4-.2.3-.3.4-.6 2.5-5.2h.1l.2-.1h.4v.4l-2.2 4.3a469 469 0 0 1-.8 1.4 2 2 0 0 1-.5.6l-.7.2h-.4Zm1.6-2.1-2.2-4.4V37.2l.2-.1h.4v.1l2 4-.4.7ZM97.2 44H97v-6.8l.2-.1h.4v.7l.8-.6 1.1-.2c.5 0 .9 0 1.2.2a2 2 0 0 1 1.2 1.3l.1.8a4 4 0 0 1 0 .6l-.1.9-.5.7a2 2 0 0 1-.7.6 3 3 0 0 1-1.2.2c-.4 0-.8-.1-1.1-.3l-.8-.5v2.4l-.2.1h-.2Zm2.3-2.3c.4 0 .8-.1 1-.3.3-.1.5-.4.6-.6l.2-.9v-.5c0-.4 0-.6-.2-1l-.6-.6a2 2 0 0 0-1-.2c-.5 0-.8 0-1 .2l-.7.7-.2.8a5 5 0 0 0 0 .7l.2.8.6.6c.3.2.7.3 1 .3ZM104.5 42.2l-.2-.1V37.2l.2-.1h.4v1.7h1.3c.8 0 1.3.1 1.7.5.3.3.5.7.5 1.2 0 .6-.2 1-.6 1.3-.4.2-1 .4-1.8.4h-1.5Zm.5-.6h1.1c.6 0 1 0 1.2-.2.3-.2.4-.5.4-.9s-.1-.7-.4-.9l-1.2-.2H105v2.2Zm4.5.6-.2-.1V37.2l.2-.1h.4v5h-.4ZM118.4 42.3c-.5 0-1-.1-1.4-.3a2 2 0 0 1-.8-.8c-.2-.3-.3-.7-.3-1.2a5 5 0 0 1 0-.8c0-.4 0-.8.3-1.2l.8-.7c.4-.2.9-.3 1.4-.3.4 0 .7 0 1 .2.3 0 .6.2.8.3l.4.5.2.6-.1.1h-.5l-.1-.1c-.2-.4-.4-.7-.7-.8-.3-.2-.6-.2-1-.2a2 2 0 0 0-1.3.4c-.3.2-.5.7-.5 1.3v.7c0 .6.2 1 .5 1.3.3.3.8.4 1.3.4.4 0 .7 0 1-.2.3-.2.5-.4.7-.8v-.2H120.8v.2a1.3 1.3 0 0 1-.3.9l-.5.3-.6.3h-1ZM128.9 42.3a3 3 0 0 1-1.4-.3c-.4-.2-.7-.5-.9-.8-.2-.4-.3-.7-.3-1.2a5.3 5.3 0 0 1 0-.8 2.1 2.1 0 0 1 1.2-2 3 3 0 0 1 1.4-.2c.5 0 1 .1 1.3.3.4.2.7.5.9.8.2.3.3.7.3 1.1a6 6 0 0 1 0 .8c0 .5-.1.8-.3 1.2a2 2 0 0 1-.9.8 3 3 0 0 1-1.3.3Zm0-.6c.5 0 1-.2 1.3-.4.3-.3.5-.8.5-1.3a4.6 4.6 0 0 0 0-.7c0-.6-.2-1-.5-1.3a2 2 0 0 0-1.3-.4 2 2 0 0 0-1.3.4c-.4.3-.5.7-.6 1.3a5.1 5.1 0 0 0 0 .7c0 .5.2 1 .6 1.3.3.2.7.4 1.3.4ZM136 42.3a3 3 0 0 1-1.3-.3 2 2 0 0 1-.9-.8c-.2-.4-.3-.7-.3-1.2V39c0-.6 0-1.1.2-1.5 0-.4.2-.7.5-1 .2-.2.5-.5.8-.6l1.2-.4a77.6 77.6 0 0 1 2-.2V35.5h-.2a282.5 282.5 0 0 1-2.6.7 2 2 0 0 0-.7.5l-.5.8-.2 1v.3c0-.3.1-.5.3-.8l.8-.5 1-.2c.6 0 1 0 1.4.3.3.2.6.4.8.8.2.3.3.7.3 1.1v.5c0 .5-.1.8-.3 1.2a2 2 0 0 1-.9.8 3 3 0 0 1-1.3.3Zm0-.6c.6 0 1-.2 1.4-.4.3-.3.5-.8.5-1.3v-.4c0-.6-.2-1-.5-1.3-.4-.3-.8-.4-1.2-.4-.6 0-1 .1-1.4.4-.4.3-.6.7-.6 1.3a3.5 3.5 0 0 0 0 .4c0 .5.2 1 .5 1.3.4.2.8.4 1.4.4ZM141 44h-.2v-.5h.5l.4-.2.3-.3.4-.6 2.5-5.2h.1l.2-.1h.4v.4l-2.2 4.3-.3.7-.4.7a2 2 0 0 1-.6.6l-.7.2h-.4Zm1.7-2.2-2.3-4.3V37.2l.2-.1h.4v.1l2 4-.3.6ZM151.4 42.2l-.2-.1-.1-.2v-2a2 2 0 0 1-.8.5h-1c-.7 0-1.2 0-1.6-.3-.3-.2-.5-.6-.5-1V37.1l.3-.1H147.8l.1.2V39c0 .3.1.5.3.7l1.1.2c.6 0 1 0 1.3-.2.3 0 .5-.3.5-.6V37.2l.3-.1H151.7l.1.2v4.8h-.4ZM156.6 42.3A2.5 2.5 0 0 1 154 40a5 5 0 0 1 0-.9c0-.4.1-.8.3-1.1.2-.4.5-.6.9-.8.3-.2.8-.3 1.3-.3s1 .1 1.3.3c.4.2.7.5.9.9.2.3.3.8.3 1.3V39.8h-4.3v.1c0 .4 0 .6.2.9.1.3.3.5.6.6.3.2.6.3 1 .3a2.2 2.2 0 0 0 1.3-.4l.2-.2.2-.2h.5l.1.2s0 .2-.2.3a2.7 2.7 0 0 1-1.2.7l-1 .2Zm-1.9-3h3.7c0-.3 0-.6-.2-.9l-.7-.6a2 2 0 0 0-1-.2 2 2 0 0 0-1 .2l-.5.6-.3.9ZM161.5 42.2l-.1-.1-.1-.2V37.2l.2-.1h.4v2.2h3.7v-2.1l.2-.1h.4v5H165.6v-2.2H162V42h-.5ZM169 42.2l-.1-.1-.1-.1v-4.8l.3-.1H169.4l.1.2v4.4-.3l3.5-4.2h.1l.2-.1h.4v5H173.1v-4.2h.2l-3.8 4.1v.1h-.5ZM178.5 42.3A2.5 2.5 0 0 1 176 40a5.6 5.6 0 0 1 0-.9c0-.4.2-.8.4-1.1.2-.4.5-.6.8-.8.4-.2.8-.3 1.3-.3.6 0 1 .1 1.4.3.4.2.6.5.8.9.2.3.4.8.4 1.3v.2l-.1.1h-4.2v.1l.1.9c.2.3.4.5.7.6.2.2.6.3 1 .3a2.2 2.2 0 0 0 1.3-.4l.2-.2.2-.2h.5v.2l-.1.3a2.7 2.7 0 0 1-1.2.7l-1 .2Zm-1.8-3h3.7l-.3-.9-.6-.6a2 2 0 0 0-1-.2 2 2 0 0 0-1 .2l-.6.6-.2.9ZM183.5 42.2l-.2-.1V37.2l.2-.1h.2l.3.1 2.1 3.4 2.1-3.4.3-.1h.4l.1.2V42H188.3l-.1-.2.1-3.8.2-.3-2 3.3-.1.1-.3.1h-.4l-.2-.2-2-3.2.2.3.1 3.7v.2h-.4Z"/></svg>